<svg xmlns="http://www.w3.org/2000/svg" viewBox="0 0 250 333"><path fill="#85e27e" stroke="#85e27e" d="M77.586 30.665C65.054 37.142 62 43.721 62 64.239 62 80.043 60.635 90 58.469 90c-1.812 0-12.498 5.89-16.722 9.217-4.916 3.872-5.204 5.494-3.365 18.939.854 6.239 1.763 14.044 2.02 17.344.258 3.3.918 7.8 1.467 10 2.394 9.593 5.247 21.52 6.691 27.977.859 3.837 2.164 8.337 2.901 10 .737 1.662 1.856 5.217 2.486 7.898.629 2.682 2.656 8.082 4.503 12 1.847 3.919 4.088 8.7 4.981 10.625.892 1.925 2.178 4.4 2.858 5.5 4.159 6.734 9.825 16.641 10.4 18.186.372.998 1.428 2.939 2.346 4.314a2225.39 2225.39 0 0 1 6.368 9.648c8.905 13.549 29.231 30.905 39.597 33.81 1.375.386 3.919 1.341 5.652 2.122 8.81 3.971 42.607 5.823 51.623 2.829 11.791-3.917 29.745-15.402 35.991-23.024 5.974-7.29 7.059-10.215 7.149-19.269l.085-8.616-2.684-.31c-1.476-.171-4.077.41-5.779 1.291-5.673 2.933-21.102 2.535-30.037-.775-24.35-9.021-32.916-16.587-45.518-40.206-2.348-4.4-4.825-9.8-5.506-12-.68-2.2-1.605-4.468-2.055-5.041-1.08-1.373-6.93-18.868-6.89-20.607.017-.743 2.073-2.891 4.568-4.771 7.389-5.568 12.401-14.728 12.401-22.664C144 123.564 133.057 112 122.788 112h-3.581l-1.126-8.75c-1.839-14.29-2.666-15.313-14.581-18.033-7.149-1.632-11.622-2.119-15.692-1.707-6.513.659-7.859-.531-7.625-6.746.122-3.265.405-3.537 4.871-4.681 10.342-2.651 15.986-10.28 16.263-21.986.386-16.334-11.265-25.875-23.731-19.432M84 50.878c0 1.957 2.745 3.228 3.383 1.566C88.275 50.121 88.206 50 86 50c-1.1 0-2 .395-2 .878m35.5 65.618c2.537.858 10.405 1.159 9.923.379-.298-.481-2.877-.839-5.732-.796-2.855.043-4.741.231-4.191.417m1.52 5.254c.057 8.053 3.811 29.328 5.672 32.142.591.895 8.048-7.671 9.613-11.043 4.818-10.38-2.057-23.849-12.173-23.849-2.755 0-3.13.331-3.112 2.75" fill-rule="evenodd"/><path fill="#2edb1f" stroke="#2edb1f" d="M77.5 31.102c-5.344 2.844-7.917 5.314-11.742 11.275l-3.203 4.992-.563 20.422C61.411 88.853 60.925 91 56.737 91c-1.371 0-9.884 5.186-9.365 5.705.254.254 2.573-.472 5.154-1.613 5.473-2.422 6.781-2.03 5.395 1.616-.551 1.45-.773 3.234-.493 3.964.574 1.496 3.572 1.833 3.572.402 0-1.977 10.904-6.399 12.504-5.071.826.686 1.496.797 1.496.247 0-1.416 7.722-2.469 9.83-1.341 2.045 1.095 8.462-1.533 7.896-3.232-.191-.572-1.716-1.52-3.39-2.108C83.327 87.458 80 83.115 80 77.381v-5.125l4.137-.662C94.055 70.008 101 61.368 101 50.616c0-16.382-11.476-25.911-23.5-19.514m6.025 18.857c-.891 1.442 1.637 4.916 3.153 4.334 2.173-.834 1.651-5.293-.619-5.293-1.068 0-2.208.432-2.534.959m1.614 34.513c.26.26 4.047.934 8.417 1.498 4.369.565 9.519 1.304 11.444 1.644 5.114.904 2.548-1.088-3.193-2.478-4.542-1.1-17.625-1.621-16.668-.664m25.198 4.6c1.72 1.053 1.676 1.209-.697 2.44-9.039 4.689-45.995 12.217-60.89 12.404-7.037.088-7.59-.324-5.686-4.232.709-1.454 0-1.047-2.124 1.22-3.133 3.346-3.177 3.527-2.546 10.5.353 3.903 1.095 12.259 1.648 18.57.553 6.311 1.445 11.913 1.982 12.45.537.537.984 2.124.993 3.526.01 1.402.903 5.925 1.985 10.05 1.082 4.125 2.683 11.076 3.558 15.446.876 4.37 2.178 9.095 2.895 10.5.717 1.405 1.622 4.129 2.01 6.054.938 4.648 4.966 14.865 9.267 23.5 3.199 6.423 5.684 10.82 19.156 33.902 7.882 13.504 26.895 32.118 38.112 37.312 14.36 6.649 24.374 8.469 45.906 8.343l15.405-.09 11.095-5.624c22.131-11.217 31.985-22.141 33.3-36.913.781-8.783-.204-9.596-8.866-7.322-14.48 3.802-27.418 1.709-45.225-7.317-4.207-2.133-15.16-10.498-17.66-13.488-9.243-11.053-20.687-34.383-26.028-53.059l-1.884-6.586 2.126-1.489c11.887-8.326 16.801-19.24 13.895-30.863-2.032-8.132-11.088-15.668-18.688-15.553l-4.173.063-1.628-9.658c-1.945-11.541-3.282-14.561-6.608-14.935-2.217-.249-2.281-.163-.63.849m-1.324 5.678c.059 3.452 6.362 19.542 7.291 18.613 1.058-1.059-.425-8.519-2.456-12.348-1.016-1.917-1.848-4.28-1.848-5.25 0-.971-.675-1.765-1.5-1.765s-1.494.338-1.487.75m8.237 21.281c-3.033 1.219-2.862 2.161.25 1.38 2.357-.592 2.5-.397 2.5 3.404 0 2.218.431 6.204.958 8.859.527 2.654 1.688 9.101 2.579 14.326 2.056 12.062 2.333 13 3.834 13 2.257 0 7.208-6.427 8.859-11.5 1.788-5.493 2.916-16.708 1.598-15.894-.455.282-.828-.153-.828-.965 0-.813-.267-2.302-.594-3.309-.495-1.524-.413-1.58.484-.332 1.544 2.146 1.361.386-.292-2.81-2.884-5.577-12.879-8.759-19.348-6.159m-6.221 3.93c-.809.512-1.211 1.191-.893 1.509.319.318 1.148-.108 1.844-.946 1.443-1.738 1.166-1.902-.951-.563m4.971 3.451c0 1.877.629 6.714 1.399 10.75.769 4.036 1.714 10.31 2.101 13.942.802 7.55 1.832 9.964 3.525 8.271.811-.811.697-2.552-.427-6.492-.844-2.961-2.019-8.983-2.609-13.383-.591-4.4-1.339-9.912-1.662-12.25-.702-5.08-2.327-5.665-2.327-.838m15-3.019c0 .216.698.661 1.552.989.89.341 1.291.173.941-.393-.587-.951-2.493-1.406-2.493-.596M72.5 126c-2.058.524-.174.778 6 .811 5.864.032 8.303-.251 7-.811-2.425-1.042-8.905-1.042-13 0m-8.059 3.555c-1.91 1.53-1.909 1.541.059.635 1.1-.506 2.675-1.17 3.5-1.476 1.296-.48 1.288-.567-.059-.635-.857-.043-2.432.621-3.5 1.476m-14.898 17.376c-.683 1.105.894 2.299 1.818 1.375.95-.951.773-2.306-.302-2.306-.518 0-1.2.419-1.516.931M131 151.059c0 .582.45.781 1 .441s1-.816 1-1.059-.45-.441-1-.441-1 .477-1 1.059m-43 11.825c0 .486-2.537 1.914-5.638 3.172-5.538 2.248-5.75 2.259-11.914.616-8.042-2.142-9.097-2.042-3.448.328 5.558 2.332 12.137 2.503 16.508.429 3.651-1.732 7.496-5.429 5.647-5.429-.635 0-1.155.398-1.155.884m35.396 3.013c.371 2.418 1.507 6.468 2.525 9 1.018 2.531 3.276 8.428 5.017 13.103 11.344 30.458 27.505 48.083 49.562 54.051 1.65.447 4.8 1.468 7 2.27s6.475 1.715 9.5 2.029l5.5.57-7-1.79c-17.305-4.424-36.935-15.436-44.116-24.747-6.179-8.012-14.379-22.569-17.396-30.883-.998-2.75-3.017-8.15-4.488-12-1.47-3.85-3.204-8.658-3.853-10.684-1.751-5.463-3.028-5.985-2.251-.919M217.5 242.48c-1.65.789-5.7 1.849-9 2.356l-6 .923 4.713.12c2.592.067 6.867-.716 9.5-1.739 2.633-1.022 5.35-1.66 6.037-1.416.688.243 1.25-.045 1.25-.641 0-1.495-2.914-1.317-6.5.397" fill-rule="evenodd"/><path fill="#49a142" stroke="#49a142" d="M79.05 30.98C73.645 33.094 67.266 39.317 64.681 45c-1.749 3.843-2.082 6.831-2.282 20.459C62.145 82.717 61.415 90 59.939 90c-.517 0-.939 1.38-.939 3.066s-.469 3.943-1.043 5.015c-1.138 2.126 1.606 4.209 2.894 2.196 2.586-4.043 17.627-8.352 22.826-6.54 3.22 1.123 7.706-.088 7.097-1.915-.216-.649-2.285-1.869-4.596-2.712-2.312-.843-4.057-1.972-3.878-2.509.179-.537-.491-1.792-1.487-2.789C79.515 82.515 79 80.482 79 76.658v-5.341l4.537-.069C92.557 71.112 101 61.114 101 50.568c0-15.05-10.223-24.173-21.95-19.588m4.463 18.999C82.785 51.157 84.688 55 86 55s3.215-3.843 2.487-5.021C88.154 49.441 87.035 49 86 49c-1.035 0-2.154.441-2.487.979m5.237 34.727c1.237.238 3.263.238 4.5 0 1.237-.239.225-.434-2.25-.434s-3.487.195-2.25.434m22.538 6.205c-.961 1.538-.91 2.02.259 2.469.799.306 1.453 1.501 1.453 2.654 0 1.154.528 3.08 1.174 4.282.645 1.201 1.532 3.534 1.969 5.184.497 1.87.601.364.278-4-.787-10.618-2.678-14.52-5.133-10.589M53.5 93c-1.319.567-1.489.878-.5.914.825.031 2.175-.381 3-.914 1.828-1.181.249-1.181-2.5 0m44.245 3.083c-1.744 1.016-8.805 2.519-26.495 5.64-9.102 1.605-12.235 3.277-6.143 3.277 3.668 0 12.206-1.819 33.393-7.115 2.2-.55 4.427-1.424 4.95-1.942 1.301-1.291-3.448-1.175-5.705.14m-59.1 7.401c-.313.816-.148 6.553.368 12.75 1.515 18.199 1.991 21.199 6.065 38.266 1.051 4.4 2.572 11.15 3.381 15 4.916 23.408 19.413 54.653 38.436 82.845 4.774 7.074 20.87 23.175 26.137 26.145 17.707 9.982 25.923 11.974 49.468 11.994l19 .016 10.5-5.232c21.938-10.93 33.264-23.998 32.901-37.961l-.099-3.807-1.289 4.084c-3.486 11.039-12.914 23.472-21.013 27.711-11.704 6.125-31.638 11.974-34.59 10.149-.398-.246-5.182-.904-10.632-1.463-10.211-1.048-27.331-5.406-33.237-8.46-12.169-6.292-28.852-23.695-45.541-47.504-2.75-3.923-5.459-7.669-6.021-8.325-1.941-2.266-7.479-11.37-7.479-12.294 0-.51-.833-2.496-1.85-4.413-5.459-10.281-13.9-40.487-14.617-52.304-.222-3.668-.978-5.564-3.162-7.933-2.839-3.078-2.813-3.072 2.234.548 2.807 2.014 5.395 3.371 5.75 3.016.355-.355.645.253.645 1.351 0 1.427-.642 1.973-2.25 1.916-1.918-.067-2.203.364-1.93 2.921.176 1.65.738 3.15 1.25 3.333.511.184.931.859.933 1.5.013 5.52 15.59 14.715 24.792 14.635 9.765-.085 19.633-9.097 20.933-19.117.31-2.393 1.137-5.187 1.838-6.209.749-1.092 1.046-3.255.723-5.25-.354-2.181-.147-3.392.58-3.392.701 0 1.131 2.039 1.131 5.356 0 9.5 8.069 17.644 17.482 17.644 3.482 0 4.716.42 5.143 1.75 1.304 4.059 4.312 10.654 4.342 9.52.018-.676-.693-3.044-1.58-5.262-.888-2.218-1.38-4.925-1.095-6.017.469-1.795.154-1.926-3.303-1.373-4.727.756-12.022-1.824-13.926-4.926-1.284-2.091-1.259-2.117.545-.579 1.041.887 3.242 1.868 4.892 2.18 1.65.312 3.9.853 5 1.202 1.1.35-.373-.558-3.274-2.017-7.777-3.913-10.226-8.058-10.226-17.309 0-6.755 1.998-14.099 3.864-14.205.35-.02 1.986-1.185 3.636-2.589 2.047-1.742 2.303-2.205.806-1.458-1.207.601-2.459 1.522-2.782 2.045-.324.523-1.226.706-2.006.407-.936-.36-1.927.675-2.917 3.043-1.738 4.16-3.056 4.915-1.518.871 1.359-3.575 2.634-5.048 7.317-8.45 4.358-3.166 2.826-3.878-2.005-.932-3.789 2.31-7.562 8.191-8.345 13.005-.56 3.444-4.044 5.951-4.055 2.917-.013-3.688-10.518-10.633-12.733-8.418-.328.327.294.595 1.381.595 2.612 0 8.095 5.449 9.991 9.928 1.504 3.554 1.158 15.145-.524 17.572-.381.55-1.291 2.8-2.021 5-5.563 16.755-29.738 16.38-39.922-.618-2.312-3.86-2.741-5.882-1.246-5.882.506 0 1.199 1.269 1.54 2.821 1.051 4.786 5.953 9.755 11.023 11.175 2.515.704 4.806 1.047 5.091.762.285-.285-1.078-.817-3.028-1.183-1.951-.366-3.547-1.095-3.547-1.62 0-.525-.59-.955-1.312-.955-5.298 0-8.361-13.912-4.72-21.434 6.189-12.785 30.493-16.524 35.101-5.4 1.662 4.013.57 16.08-1.825 20.164-2.769 4.723-3.364 6.653-1.874 6.082 2.838-1.09 5.933-9.797 6.402-18.015.452-7.898.387-8.188-2.572-11.5l-3.036-3.397-10.832.009c-12.32.011-18.055 2.121-20.942 7.704-.846 1.635-1.812 2.699-2.147 2.364-.913-.914 2.789-5.456 8.156-10.005 4.485-3.801 5.21-4.064 12.177-4.416 7.319-.369 9.613-2.156 2.769-2.156-10.711 0-21.076 6.547-25.671 16.217l-2.384 5.014-3.114-2.865c-3.537-3.256-6.54-19.339-5.296-28.366l.62-4.5 8.342-1c10.521-1.261 9.526-2.5-2.009-2.5-5.222 0-8.833-.409-8.833-1 0-1.537-1.715-1.185-2.355.484M117 111.941c0 1.914.51 3.059 1.361 3.059.915 0 1.204-.825.881-2.515-.709-3.708-2.242-4.081-2.242-.544m10.083 2.432c1.029.921 6.917 3.626 6.917 3.178 0-.576-5.544-3.551-6.617-3.551-.394 0-.529.168-.3.373m-7.702 13.649c.5 5.512 1.113 9.817 1.362 9.568.686-.685-.883-19.59-1.626-19.59-.354 0-.235 4.51.264 10.022M137 121c.589 1.1 1.295 2 1.57 2 .275 0 .019-.9-.57-2s-1.295-2-1.57-2c-.275 0-.019.9.57 2m5.079 12.583c.048 1.165.285 1.402.604.605.289-.722.253-1.585-.079-1.917-.332-.332-.568.258-.525 1.312m-20.965 6.917c-.046 1.1.565 3.8 1.357 6 .793 2.2 1.461 5.463 1.485 7.25.024 1.787.433 3.25.907 3.25.483 0 .477-2.131-.014-4.831-1.183-6.507-3.631-14.155-3.735-11.669M106 151c0 .55.477 1 1.059 1s.781-.45.441-1-.816-1-1.059-1-.441.45-.441 1m-20.951 12.441c-.657.792-2.4 1.625-3.872 1.85l-2.677.409 2.595.15c1.479.086 3.374-.711 4.405-1.85.995-1.1 1.57-2 1.277-2-.292 0-1.07.648-1.728 1.441m-10.299 3.221c.688.278 1.813.278 2.5 0 .688-.277.125-.504-1.25-.504s-1.937.227-1.25.504m54.329 8.921c.048 1.165.285 1.402.604.605.289-.722.253-1.585-.079-1.917-.332-.332-.568.258-.525 1.312m7.466 18.667c.374 1.238 1.091 2.69 1.595 3.227.503.538.408-.475-.211-2.25-1.266-3.633-2.436-4.458-1.384-.977m4.526 8.525c.619 1.776 1.535 3.482 2.035 3.791.5.309.37-.705-.288-2.252-1.767-4.151-3.052-5.283-1.747-1.539m5.028 8.668c1.156 1.96 2.508 3.814 3.003 4.12.496.307-.045-1.046-1.201-3.006-1.156-1.96-2.508-3.814-3.003-4.12-.496-.307.045 1.046 1.201 3.006m3.901 6.054c0 1.033 7.416 8.653 9.414 9.672 1.147.586-.374-1.463-3.38-4.552-5.407-5.557-6.034-6.089-6.034-5.12M173 236c.825.533 1.95.969 2.5.969s.325-.436-.5-.969c-.825-.533-1.95-.969-2.5-.969s-.325.436.5.969m9.595 3.883c1.843 1.618 14.57 5.113 18.176 4.992 3.468-.116 3.379-.181-1.271-.935-2.75-.446-7.882-1.72-11.405-2.831-3.523-1.111-5.998-1.662-5.5-1.226m39.218.8c.721.289 1.584.253 1.916-.079.332-.332-.258-.568-1.312-.525-1.165.048-1.402.285-.604.604m-7 5c.721.289 1.584.253 1.916-.079.332-.332-.258-.568-1.312-.525-1.165.048-1.402.285-.604.604m-4 1c.721.289 1.584.253 1.916-.079.332-.332-.258-.568-1.312-.525-1.165.048-1.402.285-.604.604" fill-rule="evenodd"/><path fill="#1a5116" stroke="#1a5116" d="M76.865 32.45c-10.652 5.679-13.858 13.285-13.882 32.926-.016 13.103-1.865 26.738-4.458 32.874-1.044 2.472.822 2.211 5.28-.74 6.193-4.098 13.494-5.826 19.33-4.574C89.29 94.255 89 94.269 89 92.652c0-.742-1.8-2.16-4-3.152s-4-2.384-4-3.093c0-.709-.521-1.611-1.158-2.004-.803-.497-.973-.012-.555 1.585.403 1.542.27 1.969-.404 1.295-1.151-1.151-1.278-5.857-.327-12.033.619-4.02.835-4.25 3.99-4.25 3.899 0 5.357-1.619 3.007-3.337-1.447-1.058-1.109-1.545 2.779-4.002 9.871-6.24 10.576-22.945 1.166-27.628-2.904-1.445-2.924-1.503-.65-1.845 3.111-.468 6.665 2.97 8.771 8.485 2.235 5.852 3.018 4.733.951-1.358-3.682-10.849-11.78-14.156-21.705-8.865M79 35c-1.828 1.181-.249 1.181 2.5 0 1.319-.567 1.489-.878.5-.914-.825-.031-2.175.381-3 .914m5.25 14.099c-2.402.893-2.803 1.919-1.347 3.451.497.522 1.062 1.836 1.258 2.918.336 1.869.468 1.846 2.597-.438 3.894-4.18 2.385-7.75-2.508-5.931M98.578 53c-.727 4.756-1.494 6.138-5.67 10.215-5.659 5.526-5.034 7.297.809 2.295 4.89-4.185 6.523-7.858 6.057-13.622L99.42 47.5l-.842 5.5m14.092 37.725c-.334.54-.108 2.51.502 4.378 2.228 6.824 2.703 7.359 2.133 2.397-.64-5.565-1.7-8.289-2.635-6.775m-41.908 11.982c1.244.239 3.044.23 4-.02s-.062-.446-2.262-.435c-2.2.011-2.982.216-1.738.455M39 110.45c0 3.665.429 8.551.954 10.857.524 2.306 1.235 7.23 1.579 10.943.345 3.713 1.098 6.75 1.676 6.75 1.176 0 .279-13.811-1.241-19.113-1.609-5.608.562-12.443 4.337-13.656l3.195-1.027-3.668-.102c-2.018-.056-4.38-.375-5.25-.709-1.345-.516-1.582.391-1.582 6.057M51.5 144c.34.55.816 1 1.059 1s.441-.45.441-1-.477-1-1.059-1-.781.45-.441 1m-7.839 1.441c-.869 2.264-.834 2.784.146 2.178.444-.274 1.36 2.737 2.036 6.691 2.538 14.842 8.625 36.584 12.693 45.341.805 1.733 1.464 3.453 1.464 3.822 0 .369 1.226 2.762 2.724 5.318 1.498 2.556 2.796 5.111 2.884 5.678.251 1.602 17.422 31.608 20.315 35.498 16.984 22.847 33.092 34.165 55.077 38.701 10.163 2.097 36 3.042 36 1.317 0-.654.808-.863 1.944-.503 4.807 1.526 37.056-17.669 37.056-22.055 0-.667.667-1.469 1.483-1.782.93-.357 1.244-1.236.841-2.357-.354-.983-.286-1.466.149-1.072 2.069 1.87 6.874-8.875 5.598-12.514-.456-1.301-.974-.514-1.872 2.845-.683 2.554-2.357 6.105-3.721 7.892-1.363 1.788-2.478 3.722-2.478 4.298 0 .577-.704 1.319-1.563 1.649-.875.336-1.248 1.111-.846 1.761.406.657.285.894-.278.546-.548-.338-2.481.917-4.296 2.789-2.992 3.088-9.194 6.594-19.173 10.84-9.29 3.953-32.875 4.583-43.344 1.157-2.2-.719-6.593-1.83-9.763-2.467-18.939-3.809-33.026-16.725-62.991-57.756-11.823-16.189-21.037-40.808-25.84-69.043-1.385-8.142-3.115-11.717-4.245-8.772" fill-rule="evenodd"/></svg>